<?xml version="1.0" encoding="UTF-8"?>
<svg version="1.1" xmlns="http://www.w3.org/2000/svg" width="512" height="126">
<path d="M0 0 C3.3 0 6.6 0 10 0 C10 2.97 10 5.94 10 9 C12.97 9 15.94 9 19 9 C19 11.97 19 14.94 19 18 C21.97 18 24.94 18 28 18 C28 12.06 28 6.12 28 0 C31.3 0 34.6 0 38 0 C38 15.51 38 31.02 38 47 C34.7 47 31.4 47 28 47 C28 40.73 28 34.46 28 28 C24.7 28 21.4 28 18 28 C18 25.03 18 22.06 18 19 C15.36 19 12.72 19 10 19 C10 28.24 10 37.48 10 47 C6.7 47 3.4 47 0 47 C0 31.49 0 15.98 0 0 Z " fill="#101010" transform="translate(392,39)"/>
<path d="M0 0 C9.57 0 19.14 0 29 0 C29 2.97 29 5.94 29 9 C22.73 9 16.46 9 10 9 C10 11.97 10 14.94 10 18 C16.27 18 22.54 18 29 18 C29 21.3 29 24.6 29 28 C22.73 28 16.46 28 10 28 C10 31.3 10 34.6 10 38 C16.27 38 22.54 38 29 38 C29 40.97 29 43.94 29 47 C19.43 47 9.86 47 0 47 C0 31.49 0 15.98 0 0 Z " fill="#0E0E0E" transform="translate(220,39)"/>
<path d="M0 0 C9.57 0 19.14 0 29 0 C29 2.97 29 5.94 29 9 C22.73 9 16.46 9 10 9 C10 11.97 10 14.94 10 18 C16.27 18 22.54 18 29 18 C29 21.3 29 24.6 29 28 C22.73 28 16.46 28 10 28 C10 31.3 10 34.6 10 38 C16.27 38 22.54 38 29 38 C29 40.97 29 43.94 29 47 C19.43 47 9.86 47 0 47 C0 31.49 0 15.98 0 0 Z " fill="#111111" transform="translate(174,39)"/>
<path d="M0 0 C9.57 0 19.14 0 29 0 C29 2.97 29 5.94 29 9 C22.73 9 16.46 9 10 9 C10 11.97 10 14.94 10 18 C16.27 18 22.54 18 29 18 C29 21.3 29 24.6 29 28 C22.73 28 16.46 28 10 28 C10 31.3 10 34.6 10 38 C16.27 38 22.54 38 29 38 C29 40.97 29 43.94 29 47 C19.43 47 9.86 47 0 47 C0 31.49 0 15.98 0 0 Z " fill="#0E0E0E" transform="translate(129,39)"/>
<path d="M0 0 C3.3 0 6.6 0 10 0 C10 12.21 10 24.42 10 37 C15.94 37 21.88 37 28 37 C28 24.79 28 12.58 28 0 C31.3 0 34.6 0 38 0 C38 12.54 38 25.08 38 38 C35.03 38 32.06 38 29 38 C29 40.97 29 43.94 29 47 C22.4 47 15.8 47 9 47 C9 44.03 9 41.06 9 38 C6.03 38 3.06 38 0 38 C0 25.46 0 12.92 0 0 Z " fill="#ABABAB" transform="translate(337,39)"/>
<path d="M0 0 C3.3 0 6.6 0 10 0 C10 5.94 10 11.88 10 18 C15.94 18 21.88 18 28 18 C28 12.06 28 6.12 28 0 C31.3 0 34.6 0 38 0 C38 12.54 38 25.08 38 38 C35.03 38 32.06 38 29 38 C29 40.97 29 43.94 29 47 C22.4 47 15.8 47 9 47 C9 44.03 9 41.06 9 38 C15.27 38 21.54 38 28 38 C28 34.7 28 31.4 28 28 C21.73 28 15.46 28 9 28 C9 25.03 9 22.06 9 19 C6.03 19 3.06 19 0 19 C0 12.73 0 6.46 0 0 Z " fill="#131313" transform="translate(74,39)"/>
<path d="M0 0 C9.57 0 19.14 0 29 0 C29 2.97 29 5.94 29 9 C22.73 9 16.46 9 10 9 C10 11.97 10 14.94 10 18 C16.27 18 22.54 18 29 18 C29 21.3 29 24.6 29 28 C22.73 28 16.46 28 10 28 C10 34.27 10 40.54 10 47 C6.7 47 3.4 47 0 47 C0 31.49 0 15.98 0 0 Z " fill="#0F0F0F" transform="translate(292,39)"/>
<path d="M0 0 C2.97 0 5.94 0 9 0 C9 3.3 9 6.6 9 10 C11.97 10 14.94 10 18 10 C18 12.64 18 15.28 18 18 C15.03 18 12.06 18 9 18 C9 27.57 9 37.14 9 47 C6.03 47 3.06 47 0 47 C0 31.49 0 15.98 0 0 Z " fill="#000000" transform="translate(392,39)"/>
<path d="M0 0 C2.97 0 5.94 0 9 0 C9 12.21 9 24.42 9 37 C6.03 37 3.06 37 0 37 C0 24.79 0 12.58 0 0 Z " fill="#000000" transform="translate(337,39)"/>
<path d="M0 0 C2.64 0 5.28 0 8 0 C8 12.21 8 24.42 8 37 C5.36 37 2.72 37 0 37 C0 24.79 0 12.58 0 0 Z " fill="#000000" transform="translate(366,39)"/>
<path d="M0 0 C5.94 0 11.88 0 18 0 C18 2.97 18 5.94 18 9 C12.06 9 6.12 9 0 9 C0 6.03 0 3.06 0 0 Z " fill="#050505" transform="translate(347,77)"/>
<path d="M0 0 C2.97 0 5.94 0 9 0 C9 5.94 9 11.88 9 18 C6.03 18 3.06 18 0 18 C0 12.06 0 6.12 0 0 Z " fill="#060606" transform="translate(74,39)"/>
<path d="M0 0 C5.94 0 11.88 0 18 0 C18 2.64 18 5.28 18 8 C12.06 8 6.12 8 0 8 C0 5.36 0 2.72 0 0 Z " fill="#000000" transform="translate(84,77)"/>
<path d="M0 0 C0.33 0 0.66 0 1 0 C1 2.97 1 5.94 1 9 C3.97 9 6.94 9 10 9 C10 11.97 10 14.94 10 18 C12.97 18 15.94 18 19 18 C19 12.06 19 6.12 19 0 C19.33 0 19.66 0 20 0 C20 6.27 20 12.54 20 19 C16.7 19 13.4 19 10 19 C10 21.97 10 24.94 10 28 C9.67 28 9.34 28 9 28 C9 25.03 9 22.06 9 19 C6.36 19 3.72 19 1 19 C1 28.24 1 37.48 1 47 C0.67 47 0.34 47 0 47 C0 37.43 0 27.86 0 18 C2.97 18 5.94 18 9 18 C9 15.36 9 12.72 9 10 C6.03 10 3.06 10 0 10 C0 6.7 0 3.4 0 0 Z " fill="#ABABAB" transform="translate(401,39)"/>
<path d="M0 0 C3.3 0 6.6 0 10 0 C10 2.97 10 5.94 10 9 C6.7 9 3.4 9 0 9 C0 6.03 0 3.06 0 0 Z " fill="#1E1E1E" transform="translate(265,77)"/>
<path d="M0 0 C0.33 0 0.66 0 1 0 C1 5.94 1 11.88 1 18 C6.94 18 12.88 18 19 18 C19 12.06 19 6.12 19 0 C19.33 0 19.66 0 20 0 C20 6.27 20 12.54 20 19 C13.73 19 7.46 19 1 19 C1 21.97 1 24.94 1 28 C0.67 28 0.34 28 0 28 C0 25.03 0 22.06 0 19 C-2.97 19 -5.94 19 -9 19 C-9 18.67 -9 18.34 -9 18 C-6.03 18 -3.06 18 0 18 C0 12.06 0 6.12 0 0 Z " fill="#C1C1C1" transform="translate(83,39)"/>
</svg>
