<?xml version="1.0" standalone="no"?>
<!DOCTYPE svg PUBLIC "-//W3C//DTD SVG 20010904//EN"
 "http://www.w3.org/TR/2001/REC-SVG-20010904/DTD/svg10.dtd">
<svg version="1.0" xmlns="http://www.w3.org/2000/svg"
 width="512.000000pt" height="126.000000pt" viewBox="0 0 512.000000 126.000000"
 preserveAspectRatio="xMidYMid meet">

<g transform="translate(0.000000,126.000000) scale(0.100000,-0.100000)"
fill="#000000" stroke="none">
<path d="M740 780 l0 -90 45 0 45 0 0 90 0 90 -45 0 -45 0 0 -90z"/>
<path d="M1028 778 l-3 -93 -92 -3 -93 -3 0 -44 0 -45 95 0 95 0 0 -45 0 -45
45 0 45 0 0 185 0 185 -45 0 -44 0 -3 -92z"/>
<path d="M1290 635 l0 -235 140 0 140 0 0 45 0 45 -96 0 -95 0 3 48 3 47 93 3
92 3 0 49 0 50 -95 0 -95 0 0 45 0 45 95 0 95 0 0 45 0 45 -140 0 -140 0 0
-235z"/>
<path d="M1750 635 l0 -235 135 0 135 0 0 45 0 45 -96 0 -95 0 3 48 3 47 93 3
92 3 0 49 0 50 -95 0 -95 0 0 45 0 45 95 0 95 0 0 45 0 45 -135 0 -135 0 0
-235z"/>
<path d="M2200 635 l0 -235 140 0 140 0 0 45 0 45 -95 0 -95 0 0 50 0 50 95 0
95 0 0 50 0 50 -95 0 -95 0 0 45 0 45 95 0 95 0 0 45 0 45 -140 0 -140 0 0
-235z"/>
<path d="M2920 635 l0 -235 45 0 45 0 0 95 0 95 95 0 95 0 0 50 0 50 -95 0
-95 0 0 45 0 45 95 0 95 0 0 45 0 45 -140 0 -140 0 0 -235z"/>
<path d="M3370 685 l0 -185 45 0 45 0 0 185 0 185 -45 0 -45 0 0 -185z"/>
<path d="M3660 685 l0 -185 45 0 45 0 0 185 0 185 -45 0 -45 0 0 -185z"/>
<path d="M3920 635 l0 -235 45 0 45 0 0 145 0 145 50 0 50 0 0 45 0 45 -50 0
-50 0 0 45 0 45 -45 0 -45 0 0 -235z"/>
<path d="M4208 778 l-3 -93 -47 -3 -48 -3 0 -45 0 -44 50 0 50 0 0 -96 0 -95
43 3 42 3 3 233 2 232 -44 0 -45 0 -3 -92z"/>
<path d="M840 445 l0 -45 90 0 90 0 0 45 0 45 -90 0 -90 0 0 -45z"/>
<path d="M2652 448 c3 -43 3 -43 46 -46 l42 -3 0 45 0 46 -46 0 -45 0 3 -42z"/>
<path d="M3470 445 l0 -45 90 0 90 0 0 45 0 45 -90 0 -90 0 0 -45z"/>
</g>
</svg>
