<?xml version="1.0" encoding="UTF-8"?>
<svg version="1.1" xmlns="http://www.w3.org/2000/svg" width="1024" height="1024">
<path d="M0 0 C337.92 0 675.84 0 1024 0 C1024 337.92 1024 675.84 1024 1024 C686.08 1024 348.16 1024 0 1024 C0 686.08 0 348.16 0 0 Z " fill="#FDFDF9" transform="translate(0,0)"/>
<path d="M0 0 C0.88847626 0.00182281 1.77695251 0.00364563 2.69235229 0.00552368 C17.23602449 0.05548404 31.46542481 0.76355228 45.8125 3.3125 C47.31586914 3.57788574 47.31586914 3.57788574 48.84960938 3.84863281 C94.94574505 12.24689038 135.39407628 31.37265344 169.8125 63.3125 C170.52792969 63.95058594 171.24335937 64.58867187 171.98046875 65.24609375 C201.59682179 92.92039085 220.61641876 137.94764082 226.8125 177.3125 C226.98837646 178.39039795 227.16425293 179.4682959 227.34545898 180.57885742 C228.97734743 191.81487013 229.15161237 202.95937496 229.12817383 214.30102539 C229.1250221 217.47772865 229.1485333 220.65348966 229.17382812 223.83007812 C229.21603697 237.24091396 228.18737261 250.11417744 225.8125 263.3125 C225.47593384 265.19183228 225.47593384 265.19183228 225.13256836 267.10913086 C215.80591622 315.62963376 192.75456482 362.85875315 151.11328125 391.47265625 C133.36808111 403.34375861 114.56555509 413.33590164 95.67959595 423.22991943 C89.15718977 426.64875125 82.66858348 430.12840162 76.1875 433.625 C75.12942139 434.19541016 74.07134277 434.76582031 72.98120117 435.35351562 C66.20699116 439.00972297 59.4444287 442.68697219 52.6875 446.375 C51.80634521 446.85501465 50.92519043 447.3350293 50.01733398 447.82958984 C45.19075181 450.46051063 40.37404222 453.10803735 35.56640625 455.7734375 C4.21368263 473.07606803 4.21368263 473.07606803 -12.1875 471.3125 C-15.30293889 470.08980028 -17.64788589 468.46865753 -20.1875 466.3125 C-20.950625 465.755625 -21.71375 465.19875 -22.5 464.625 C-28.48561582 456.42248943 -27.5512326 445.83928275 -27.375 436.1875 C-27.35991768 434.73959734 -27.34623558 433.29167938 -27.33398438 431.84375 C-27.30127849 428.33301006 -27.24969511 424.82285601 -27.1875 421.3125 C-28.04577393 421.33344727 -28.90404785 421.35439453 -29.78833008 421.37597656 C-82.67848066 422.48819374 -134.16184297 410.28926361 -175.1875 375.3125 C-175.98776611 374.631875 -175.98776611 374.631875 -176.80419922 373.9375 C-211.95692346 343.69305409 -229.50133385 295.7691213 -233.01464844 250.42285156 C-236.53089573 187.15026602 -222.2470753 123.76100836 -179.4921875 75.2109375 C-176.77957763 72.19126718 -173.99270821 69.24594062 -171.1875 66.3125 C-170.31351562 65.38566406 -169.43953125 64.45882812 -168.5390625 63.50390625 C-161.61901438 56.35048407 -154.19450489 50.18778395 -146.1875 44.3125 C-145.63175293 43.90177246 -145.07600586 43.49104492 -144.50341797 43.06787109 C-116.98396262 23.0118665 -83.68786918 10.52141156 -50.4375 4 C-49.32568359 3.77908691 -49.32568359 3.77908691 -48.19140625 3.55371094 C-32.26872828 0.66789451 -16.14730915 -0.069575 0 0 Z " fill="#FEB822" transform="translate(513.1875,167.6875)"/>
<path d="M0 0 C0.88847626 0.00182281 1.77695251 0.00364563 2.69235229 0.00552368 C17.23602449 0.05548404 31.46542481 0.76355228 45.8125 3.3125 C47.31586914 3.57788574 47.31586914 3.57788574 48.84960938 3.84863281 C94.94574505 12.24689038 135.39407628 31.37265344 169.8125 63.3125 C170.52792969 63.95058594 171.24335937 64.58867187 171.98046875 65.24609375 C201.59682179 92.92039085 220.61641876 137.94764082 226.8125 177.3125 C226.98837646 178.39039795 227.16425293 179.4682959 227.34545898 180.57885742 C228.97734743 191.81487013 229.15161237 202.95937496 229.12817383 214.30102539 C229.1250221 217.47772865 229.1485333 220.65348966 229.17382812 223.83007812 C229.21603697 237.24091396 228.18737261 250.11417744 225.8125 263.3125 C225.47593384 265.19183228 225.47593384 265.19183228 225.13256836 267.10913086 C215.80591622 315.62963376 192.75456482 362.85875315 151.11328125 391.47265625 C133.36808111 403.34375861 114.56555509 413.33590164 95.67959595 423.22991943 C89.15718977 426.64875125 82.66858348 430.12840162 76.1875 433.625 C75.12942139 434.19541016 74.07134277 434.76582031 72.98120117 435.35351562 C66.20699116 439.00972297 59.4444287 442.68697219 52.6875 446.375 C51.80634521 446.85501465 50.92519043 447.3350293 50.01733398 447.82958984 C45.19075181 450.46051063 40.37404222 453.10803735 35.56640625 455.7734375 C4.21368263 473.07606803 4.21368263 473.07606803 -12.1875 471.3125 C-15.30293889 470.08980028 -17.64788589 468.46865753 -20.1875 466.3125 C-20.950625 465.755625 -21.71375 465.19875 -22.5 464.625 C-28.48561582 456.42248943 -27.5512326 445.83928275 -27.375 436.1875 C-27.35991768 434.73959734 -27.34623558 433.29167938 -27.33398438 431.84375 C-27.30127849 428.33301006 -27.24969511 424.82285601 -27.1875 421.3125 C-28.04577393 421.33344727 -28.90404785 421.35439453 -29.78833008 421.37597656 C-82.67848066 422.48819374 -134.16184297 410.28926361 -175.1875 375.3125 C-175.98776611 374.631875 -175.98776611 374.631875 -176.80419922 373.9375 C-211.95692346 343.69305409 -229.50133385 295.7691213 -233.01464844 250.42285156 C-236.53089573 187.15026602 -222.2470753 123.76100836 -179.4921875 75.2109375 C-176.77957763 72.19126718 -173.99270821 69.24594062 -171.1875 66.3125 C-170.31351562 65.38566406 -169.43953125 64.45882812 -168.5390625 63.50390625 C-161.61901438 56.35048407 -154.19450489 50.18778395 -146.1875 44.3125 C-145.63175293 43.90177246 -145.07600586 43.49104492 -144.50341797 43.06787109 C-116.98396262 23.0118665 -83.68786918 10.52141156 -50.4375 4 C-49.32568359 3.77908691 -49.32568359 3.77908691 -48.19140625 3.55371094 C-32.26872828 0.66789451 -16.14730915 -0.069575 0 0 Z M-131.1875 65.3125 C-132.17492187 66.07175781 -133.16234375 66.83101562 -134.1796875 67.61328125 C-155.82469518 84.87410183 -172.50196053 104.72920871 -185.1875 129.3125 C-185.54440918 129.99505859 -185.90131836 130.67761719 -186.26904297 131.38085938 C-199.2844946 156.5436583 -207.16670172 185.48085093 -207.42578125 213.8671875 C-207.4355751 214.75829727 -207.44536896 215.64940704 -207.45545959 216.56752014 C-207.86389164 263.3913191 -201.08377589 311.97382939 -167.1875 347.3125 C-166.25164062 348.32570313 -166.25164062 348.32570313 -165.296875 349.359375 C-142.14705462 373.67641322 -107.76029553 387.74747524 -75.1875 393.3125 C-74.19411621 393.48837646 -73.20073242 393.66425293 -72.17724609 393.84545898 C-58.94037398 395.91331511 -45.61467259 395.69297795 -32.24853516 395.76879883 C-29.04823919 395.7904 -25.84853055 395.82976797 -22.6484375 395.87109375 C-21.18281876 395.87126747 -21.18281876 395.87126747 -19.68759155 395.8714447 C-14.71265378 395.9441912 -11.21404174 396.04905693 -7.1875 399.3125 C-2.43013738 404.24606123 -1.94533671 410.9258674 -1.84375 417.48828125 C-1.8291272 418.13951462 -1.81450439 418.79074799 -1.79943848 419.4617157 C-1.73770744 422.21720791 -1.69733786 424.97290094 -1.65576172 427.72875977 C-1.62211666 429.75291282 -1.57686502 431.77686257 -1.53125 433.80078125 C-1.51255859 435.00259033 -1.49386719 436.20439941 -1.47460938 437.44262695 C-1.48047984 440.44165696 -1.48047984 440.44165696 0.8125 442.3125 C8.10514069 442.36265571 14.10854166 438.35767758 20.375 435 C21.58399921 434.36131784 22.79339633 433.72338837 24.00317383 433.08618164 C33.16810256 428.24520757 42.27798147 423.30036225 51.359375 418.3046875 C56.13109091 415.68007074 60.9219013 413.09218827 65.71655273 410.50976562 C75.64275039 405.16040389 85.50111061 399.70738645 95.29516602 394.11962891 C100.01434639 391.43348197 104.74946913 388.79422752 109.546875 386.25 C126.29219314 377.36449395 141.22630143 367.58456681 154.8125 354.3125 C155.68390625 353.50296875 156.5553125 352.6934375 157.453125 351.859375 C189.63817184 321.25396236 202.87057018 269.37082264 204.03125 226.4140625 C204.66056451 189.55625597 198.5589533 153.91047358 180.8125 121.3125 C180.48636719 120.70180664 180.16023438 120.09111328 179.82421875 119.46191406 C172.54640251 105.88487241 163.38877806 94.40627179 152.8125 83.3125 C152.19632813 82.65507812 151.58015625 81.99765625 150.9453125 81.3203125 C145.98012237 76.16506724 140.42164003 71.7431239 134.8125 67.3125 C133.884375 66.56742188 132.95625 65.82234375 132 65.0546875 C62.0009279 10.46301986 -61.37331829 11.35759957 -131.1875 65.3125 Z " fill="#09141E" transform="translate(513.1875,167.6875)"/>
<path d="M0 0 C9.64795093 3.35252596 19.25822655 6.12337717 29.25 8.25 C30.33716309 8.48420654 31.42432617 8.71841309 32.54443359 8.9597168 C47.29932972 11.96731752 61.96086839 13.22787789 77 13.1875 C78.16104752 13.18668427 78.16104752 13.18668427 79.34555054 13.18585205 C104.30652992 13.10602596 128.48066466 8.78095865 152.07421875 0.61328125 C153.68453979 0.05688965 153.68453979 0.05688965 155.32739258 -0.51074219 C157.38245851 -1.23250601 159.43110397 -1.9729304 161.47143555 -2.73535156 C167.44874293 -4.86771283 172.40808626 -6.00464072 178.625 -4.1875 C181.18359375 -2.69921875 181.18359375 -2.69921875 183.0625 -0.875 C183.70058594 -0.28074219 184.33867188 0.31351562 184.99609375 0.92578125 C189.11832318 5.70044987 188.97703636 10.08158463 188.9375 16.125 C188.93186035 17.01928711 188.9262207 17.91357422 188.92041016 18.83496094 C188.39119178 48.14632314 173.34468303 74.93882519 153.625 95.8125 C152.57892578 96.95525391 152.57892578 96.95525391 151.51171875 98.12109375 C138.57167075 111.7708336 120.85454141 121.39719141 102.625 125.8125 C101.92221924 125.98837646 101.21943848 126.16425293 100.49536133 126.34545898 C93.34502404 127.97756175 86.37667638 128.15932017 79.0625 128.125 C77.82685303 128.12008545 76.59120605 128.1151709 75.31811523 128.11010742 C60.72483166 127.92395642 48.04251503 125.82963303 34.625 119.8125 C33.6659375 119.40515625 32.706875 118.9978125 31.71875 118.578125 C5.09234025 106.41014205 -16.77022205 81.20818185 -27.40771484 54.18945312 C-32.93255903 39.22510957 -39.2690352 21.22105788 -34.3125 5.25 C-26.0513488 -9.40688116 -13.30082678 -4.82411885 0 0 Z " fill="#09141E" transform="translate(435.375,398.1875)"/>
<path d="M0 0 C0.84240234 -0.01611328 1.68480469 -0.03222656 2.55273438 -0.04882812 C7.67129961 -0.05283013 11.30964626 0.38084309 15.6875 3.3125 C22.95411888 10.90242184 28.16391135 21.26842107 33.75 30.1171875 C38.6594553 37.8738269 43.69855099 45.54456169 48.73803711 53.21704102 C49.7474939 54.75509399 49.7474939 54.75509399 50.77734375 56.32421875 C51.36378662 57.21584717 51.95022949 58.10747559 52.55444336 59.02612305 C55.63174315 63.76728506 58.65835279 68.54047308 61.6875 73.3125 C61.69114563 72.49897064 61.69479126 71.68544128 61.69854736 70.84725952 C61.73647043 63.16703463 61.79337146 55.48729252 61.87140274 47.80737877 C61.91085197 43.85936231 61.94305271 39.91156803 61.95849609 35.96337891 C61.97367993 32.15055013 62.00815493 28.33833225 62.05580902 24.52577591 C62.07060524 23.07384181 62.07854001 21.62182049 62.07938385 20.16981125 C62.08176082 18.12996638 62.10889312 16.09179995 62.14160156 14.05224609 C62.15492523 12.31350723 62.15492523 12.31350723 62.16851807 10.53964233 C62.79995265 6.61324499 64.23669956 4.40842677 66.6875 1.3125 C70.30703041 -0.49726521 74.51418298 0.04213337 78.5 0 C79.40298828 -0.02900391 80.30597656 -0.05800781 81.23632812 -0.08789062 C85.5271851 -0.12887603 88.00995111 -0.09127437 91.76171875 2.14453125 C94.65416213 5.40073019 94.81382762 8.04338662 94.82794189 12.23324585 C94.83365204 13.24825668 94.83936218 14.26326752 94.84524536 15.30903625 C94.84692215 16.97823372 94.84692215 16.97823372 94.84863281 18.68115234 C94.85608017 20.44003532 94.85608017 20.44003532 94.86367798 22.23445129 C94.87578555 25.45145481 94.88324437 28.66842198 94.88768864 31.88544416 C94.89062113 33.89578627 94.89472626 35.9061227 94.89919281 37.91646194 C94.91286388 44.20782932 94.92253268 50.49918369 94.9263947 56.79056489 C94.93087592 64.05047179 94.94842821 71.31019045 94.9773953 78.57004011 C94.99901593 84.18372431 95.00909917 89.79735556 95.01043582 95.41108096 C95.0114835 98.76307389 95.01738329 102.11488978 95.03525543 105.46683884 C95.05227402 109.2063913 95.05044572 112.94548332 95.04394531 116.68505859 C95.0531601 117.79380844 95.06237488 118.90255829 95.0718689 120.04490662 C95.02057381 129.44568151 95.02057381 129.44568151 91.6875 133.3125 C86.14698551 137.54078737 79.3244333 136.91508602 72.6875 136.3125 C64.21723015 133.64593357 58.92399519 125.69457614 54.6875 118.3125 C50.36986962 111.01846059 45.8511702 103.89018061 41.1875 96.8125 C36.04076404 88.98317545 31.0208447 81.0971171 26.1875 73.0703125 C25.78144531 72.39613281 25.37539063 71.72195313 24.95703125 71.02734375 C24.61260986 70.45105225 24.26818848 69.87476074 23.91333008 69.28100586 C22.23336837 66.58323027 20.45371558 63.95437603 18.6875 61.3125 C18.67941315 62.14077805 18.67132629 62.96905609 18.66299438 63.82243347 C18.58499345 71.63528116 18.49768614 79.44795783 18.39997292 87.26058483 C18.35006675 91.27695969 18.30373633 95.29330898 18.265625 99.30981445 C18.22870026 103.18731706 18.18232103 107.0646027 18.12943649 110.94191933 C18.11093068 112.41981506 18.09580867 113.89775723 18.08415604 115.37572289 C18.06722791 117.44886783 18.03817826 119.52152002 18.00634766 121.59448242 C17.99302399 122.77362717 17.97970032 123.95277191 17.9659729 125.16764832 C17.68657833 128.32290863 17.15227364 130.5139565 15.6875 133.3125 C9.28380278 137.63127255 1.13406907 137.13186359 -6.3125 136.3125 C-11.80506858 134.32104239 -11.80506858 134.32104239 -13.46288681 131.02605534 C-14.34097939 128.22154048 -14.56398416 126.03691662 -14.56646729 123.10655212 C-14.57210693 122.07893265 -14.57774658 121.05131317 -14.58355713 119.99255371 C-14.57950867 118.87602417 -14.57546021 117.75949463 -14.57128906 116.60913086 C-14.5747937 115.42489029 -14.57829834 114.24064972 -14.58190918 113.02052307 C-14.58919417 109.78092901 -14.5874997 106.54149885 -14.58115101 103.3019073 C-14.57607907 99.90850788 -14.58078567 96.51511922 -14.58392334 93.12171936 C-14.58755901 87.42479493 -14.58277385 81.72792241 -14.57324219 76.03100586 C-14.56235315 69.44681929 -14.56588803 62.86275655 -14.576895 56.27857298 C-14.58597302 50.62154549 -14.58725079 44.96455525 -14.58201766 39.30752283 C-14.57890146 35.93049341 -14.57847909 32.55352218 -14.58509064 29.17649651 C-14.59015771 25.41307012 -14.58244299 21.64988312 -14.57128906 17.88647461 C-14.57533752 16.76792084 -14.57938599 15.64936707 -14.58355713 14.49691772 C-14.57791748 13.47211807 -14.57227783 12.44731842 -14.56646729 11.39146423 C-14.56571323 10.50197555 -14.56495918 9.61248686 -14.56418228 8.69604397 C-14.28802654 6.0807254 -13.73938927 4.51387862 -12.3125 2.3125 C-8.1768159 -0.44462273 -4.85778356 -0.01833126 0 0 Z " fill="#09151D" transform="translate(823.3125,672.6875)"/>
<path d="M0 0 C0.85078125 -0.020625 1.7015625 -0.04125 2.578125 -0.0625 C7.35224887 -0.09224532 10.88515813 -0.07109509 14.625 3.25 C16.86822357 7.51312124 16.91236483 11.60076396 16.89624023 16.30981445 C16.90146698 17.1072406 16.90669373 17.90466675 16.91207886 18.72625732 C16.92229546 20.45261487 16.92809517 22.17900302 16.92996025 23.90538979 C16.93363327 26.64273469 16.95038637 29.37972033 16.97071838 32.11698914 C17.02603494 39.89783023 17.05677245 47.67872418 17.08129883 55.4597168 C17.0972218 60.22479632 17.12749132 64.98962101 17.16606331 69.7545681 C17.17767256 71.56492586 17.1836433 73.37532928 17.18374443 75.18572426 C17.18393767 77.72475215 17.20229017 80.26308299 17.22436523 82.80200195 C17.21978806 83.54149582 17.21521088 84.28098969 17.210495 85.04289246 C17.28729496 90.63221399 18.16490615 96.44744819 21.97060299 100.78291798 C27.31646451 105.47403781 32.04280427 106.72845542 38.9921875 106.5625 C44.76976047 105.87673466 49.15452616 103.87129167 53.0625 99.5625 C56.20993272 92.88994263 56.92174399 86.08296002 56.86450195 78.78027344 C56.86651611 77.98719788 56.86853027 77.19412231 56.87060547 76.37701416 C56.87412285 74.67307634 56.87341902 72.96912539 56.86882973 71.26519012 C56.86319094 68.56614802 56.87246676 65.86752831 56.8860321 63.16851807 C56.92298789 55.50132144 56.94166227 47.83427564 56.93041992 40.16699219 C56.92456933 35.46204059 56.94281518 30.75769255 56.97630882 26.05286407 C56.98425519 24.26513607 56.98299617 22.47734217 56.97228432 20.6896286 C56.95795605 18.19313175 56.97422282 15.69854002 56.99731445 13.20214844 C56.97966286 12.10018127 56.97966286 12.10018127 56.96165466 10.97595215 C57.03287064 7.04767635 57.51295368 5.38880386 60.01322937 2.29144287 C62.85222192 0.07239613 63.99372002 -0.37426987 67.53125 -0.34375 C68.44003906 -0.34117187 69.34882812 -0.33859375 70.28515625 -0.3359375 C71.69087891 -0.29339844 71.69087891 -0.29339844 73.125 -0.25 C74.06214844 -0.25257813 74.99929688 -0.25515625 75.96484375 -0.2578125 C85.13653761 -0.12771755 85.13653761 -0.12771755 88.625 3.25 C90.41248512 8.29079436 90.91814778 12.957297 90.8996582 18.25805664 C90.90476913 19.02662994 90.90988007 19.79520325 90.91514587 20.58706665 C90.92896913 23.11151062 90.92808951 25.63567906 90.92578125 28.16015625 C90.92967436 29.9326538 90.93401029 31.70515043 90.93876648 33.47764587 C90.94621476 37.19045026 90.94594914 40.90315957 90.94067383 44.6159668 C90.93490472 49.33732484 90.95175479 54.05828732 90.9750185 58.77958012 C90.98987214 62.44225787 90.99061147 66.10484315 90.98750877 69.7675457 C90.98801695 71.50599381 90.99315832 73.2444478 91.00332069 74.98286629 C91.09672226 93.20611149 89.17804078 109.16612524 76.06640625 122.92578125 C63.52550207 134.86472203 48.61937965 137.74397508 31.69140625 137.4609375 C18.59765071 136.96614198 6.05872654 131.46509744 -3.41015625 122.44140625 C-12.547407 112.25055601 -16.50598804 99.24360819 -16.55200195 85.79125977 C-16.55857315 84.95160675 -16.56514435 84.11195374 -16.57191467 83.24685669 C-16.59156758 80.4783722 -16.60328976 77.70994165 -16.61328125 74.94140625 C-16.61735678 73.99364759 -16.6214323 73.04588894 -16.62563133 72.06941032 C-16.64645368 67.0569366 -16.66077433 62.04448998 -16.67016602 57.03198242 C-16.68124787 51.85909563 -16.71567919 46.6866369 -16.75533772 41.51390171 C-16.78148383 37.53072817 -16.78985586 33.54765725 -16.79344749 29.56440544 C-16.7983153 27.65744051 -16.80993483 25.75048023 -16.82848549 23.84359932 C-16.85284387 21.17476464 -16.85191858 18.50704666 -16.8449707 15.83813477 C-16.86418579 14.66200371 -16.86418579 14.66200371 -16.88378906 13.46211243 C-16.83497832 8.30919833 -15.83786106 5.30272388 -12.375 1.25 C-8.23358936 -0.13047021 -4.33798777 0.02605398 0 0 Z " fill="#09151E" transform="translate(700.375,672.75)"/>
<path d="M0 0 C0.66554901 -0.00846954 1.33109802 -0.01693909 2.01681519 -0.02566528 C4.21135702 -0.04901601 6.40519697 -0.050058 8.59985352 -0.04882812 C10.12915832 -0.05593087 11.65846046 -0.06363003 13.1877594 -0.07189941 C16.39136159 -0.0853397 19.59471736 -0.0869151 22.79833984 -0.08105469 C26.89883189 -0.0751585 30.99813994 -0.10574707 35.09840298 -0.14617157 C38.25635622 -0.17205218 41.41402449 -0.17492574 44.57206917 -0.17127991 C46.083527 -0.17297082 47.59499805 -0.18261072 49.10635185 -0.20042419 C51.22274326 -0.22262444 53.33674006 -0.21291151 55.453125 -0.1953125 C56.65573471 -0.19736694 57.85834442 -0.19942139 59.09739685 -0.20153809 C63.19894906 0.59653952 64.67020321 2.24469094 67.29125977 5.41992188 C68.75469433 8.34679099 68.46170236 10.97445801 68.47875977 14.23242188 C68.49293945 15.45574219 68.50711914 16.6790625 68.52172852 17.93945312 C68.23791409 22.22553194 67.75123387 25.10456879 64.49468994 28.03852844 C61.99001572 29.60878039 60.72233074 29.78570697 57.7980957 29.76049805 C56.47717926 29.76015816 56.47717926 29.76015816 55.12957764 29.7598114 C54.18777649 29.74432755 53.24597534 29.72884369 52.27563477 29.71289062 C51.30466858 29.70864578 50.33370239 29.70440094 49.33331299 29.70002747 C46.23567846 29.6832504 43.13869728 29.64559959 40.04125977 29.60742188 C37.93970667 29.5923738 35.83814336 29.57868561 33.73657227 29.56640625 C28.58768126 29.53590334 23.44020083 29.47717946 18.29125977 29.41992188 C18.29125977 37.33992187 18.29125977 45.25992188 18.29125977 53.41992188 C21.13235352 53.37351562 23.97344727 53.32710937 26.90063477 53.27929688 C29.65419732 53.24809635 32.40774014 53.22381141 35.16137695 53.20019531 C37.07422712 53.18008736 38.98701588 53.15279681 40.8996582 53.11816406 C43.65013788 53.06960938 46.39980453 53.0469453 49.15063477 53.02929688 C50.0049408 53.00865173 50.85924683 52.98800659 51.73944092 52.96673584 C57.68971527 52.96449017 57.68971527 52.96449017 60.80004883 55.31933594 C63.5885542 59.24734841 63.50788765 62.54781067 63.54125977 67.23242188 C63.56188477 67.94462891 63.58250977 68.65683594 63.60375977 69.390625 C63.63723635 73.91414865 63.32138409 76.97602007 60.29125977 80.41992188 C55.48265577 82.5011699 50.98740788 82.68560477 45.83032227 82.61523438 C45.03975433 82.61240448 44.2491864 82.60957458 43.43466187 82.60665894 C40.92836893 82.59553143 38.42244332 82.57044113 35.91625977 82.54492188 C34.2092337 82.53488245 32.502202 82.52575829 30.79516602 82.51757812 C26.62694449 82.49732438 22.45950964 82.4581627 18.29125977 82.41992188 C18.29125977 90.33992187 18.29125977 98.25992188 18.29125977 106.41992188 C22.96862305 106.36771484 22.96862305 106.36771484 27.74047852 106.31445312 C30.76545293 106.29104704 33.7904172 106.27283642 36.81542969 106.25512695 C38.91541063 106.24005416 41.01536016 106.21959246 43.11523438 106.19360352 C46.13622801 106.15715434 49.15680487 106.14018028 52.17797852 106.12695312 C53.11461838 106.11146927 54.05125824 106.09598541 55.01628113 106.08003235 C59.93082539 106.07876766 63.31664864 106.17828839 67.29125977 109.41992188 C69.90277949 112.89931825 69.59119198 116.6304579 69.60375977 120.85742188 C69.62051758 122.15550781 69.63727539 123.45359375 69.65454102 124.79101562 C69.27376534 128.59467803 68.6106005 130.42704893 66.29125977 133.41992188 C61.69405084 136.48472783 57.56052811 136.54645635 52.12744141 136.58105469 C50.90589859 136.59066223 49.68435577 136.60026978 48.42579651 136.61016846 C47.11425095 136.61441833 45.80270538 136.61866821 44.45141602 136.62304688 C43.44349912 136.62728794 43.44349912 136.62728794 42.41522026 136.63161469 C38.86160773 136.64656324 35.30803537 136.65582092 31.75439453 136.66015625 C28.09489233 136.66564474 24.43576147 136.68969267 20.77637577 136.7181282 C17.95127806 136.73679848 15.12626922 136.74196243 12.30111504 136.74349213 C10.299256 136.74796786 8.29744463 136.76658772 6.29566956 136.78546143 C5.07097458 136.78246033 3.8462796 136.77945923 2.58447266 136.77636719 C1.51145401 136.78001282 0.43843536 136.78365845 -0.667099 136.78741455 C-5.37461742 136.21864973 -8.45134811 134.47604841 -12.05238342 131.45141602 C-14.62917028 126.73533419 -14.25710401 122.20623173 -14.21044922 116.91601562 C-14.2158522 115.75288849 -14.22125519 114.58976135 -14.2268219 113.39138794 C-14.23932955 109.54647379 -14.22280344 105.7023054 -14.20483398 101.85742188 C-14.20498892 99.18610618 -14.20642318 96.51481728 -14.20924377 93.84350586 C-14.21194386 88.24486586 -14.1984879 82.64644049 -14.17529297 77.04785156 C-14.1486843 70.58063523 -14.14693678 64.1137777 -14.15868133 57.64652538 C-14.1694711 51.41812246 -14.1632627 45.18984896 -14.14912605 38.9614563 C-14.14460704 36.31406024 -14.14427866 33.66665362 -14.14819145 31.01925659 C-14.15109897 27.32055975 -14.13461739 23.62245073 -14.11279297 19.92382812 C-14.11729462 18.82757111 -14.12179626 17.73131409 -14.12643433 16.60183716 C-14.06298481 10.13592193 -13.62123696 6.36215154 -8.9405365 1.63366699 C-5.87083138 -0.03576837 -3.48723448 0.02442947 0 0 Z " fill="#08141D" transform="translate(359.708740234375,672.580078125)"/>
<path d="M0 0 C0.64589584 -0.0049649 1.29179169 -0.00992981 1.95726013 -0.01504517 C4.0921231 -0.02963944 6.22691177 -0.03646404 8.36181641 -0.04199219 C9.84770713 -0.04774572 11.33359783 -0.05350343 12.81948853 -0.05926514 C15.93483831 -0.06976722 19.05016235 -0.07561512 22.16552734 -0.07910156 C26.15250539 -0.08458585 30.13914186 -0.10861551 34.1260128 -0.13707352 C37.19555651 -0.15572002 40.26501824 -0.16090655 43.3346138 -0.16243744 C44.80419406 -0.16545977 46.27377303 -0.17347419 47.74329758 -0.18662262 C49.80178394 -0.20372662 51.85943966 -0.20179294 53.91796875 -0.1953125 C55.08806488 -0.19895813 56.25816101 -0.20260376 57.4637146 -0.20635986 C60.93763993 0.2022095 62.8053892 1.07696172 65.58837891 3.16113281 C68.69437109 8.65057519 68.09476832 15.05376954 67.58837891 21.16113281 C66.07043554 25.42583085 65.33934209 26.66049069 61.58837891 29.16113281 C59.5572052 29.40164185 59.5572052 29.40164185 57.20874023 29.38818359 C56.32805374 29.38803253 55.44736725 29.38788147 54.53999329 29.38772583 C53.59303085 29.37740326 52.64606842 29.36708069 51.67041016 29.35644531 C50.69802902 29.35361542 49.72564789 29.35078552 48.72380066 29.34786987 C45.61603525 29.33666881 42.50855731 29.31156429 39.40087891 29.28613281 C37.29476327 29.27610292 35.18864313 29.26697709 33.08251953 29.25878906 C27.91760595 29.23843071 22.75331448 29.1992817 17.58837891 29.16113281 C17.58837891 37.08113281 17.58837891 45.00113281 17.58837891 53.16113281 C20.34568359 53.103125 23.10298828 53.04511719 25.94384766 52.98535156 C28.62130865 52.94633171 31.29873769 52.91598679 33.97631836 52.88647461 C35.833885 52.86136579 37.69135318 52.82727148 39.54858398 52.78393555 C42.22225248 52.72312157 44.89461256 52.69488761 47.56884766 52.67285156 C48.8097541 52.63414192 48.8097541 52.63414192 50.07572937 52.59465027 C54.36064978 52.59257677 56.08303404 52.78068725 59.61499023 55.43969727 C61.50920609 58.05194819 62.21610894 59.05695213 62.18212891 62.19238281 C62.17955078 62.92070313 62.17697266 63.64902344 62.17431641 64.39941406 C62.14595703 65.14578125 62.11759766 65.89214844 62.08837891 66.66113281 C62.09224609 67.78068359 62.09224609 67.78068359 62.09619141 68.92285156 C62.01707563 73.39289315 61.65586991 76.67771082 58.58837891 80.16113281 C53.84183399 82.20326134 49.43462705 82.4279464 44.34619141 82.35644531 C43.57781952 82.35361542 42.80944763 82.35078552 42.01779175 82.34786987 C39.5828237 82.33674592 37.14823429 82.31165642 34.71337891 82.28613281 C33.05453008 82.27609292 31.39567545 82.26696884 29.73681641 82.25878906 C25.68707682 82.23854036 21.63814772 82.19937827 17.58837891 82.16113281 C17.58837891 90.08113281 17.58837891 98.00113281 17.58837891 106.16113281 C22.26574219 106.10892578 22.26574219 106.10892578 27.03759766 106.05566406 C30.06257207 106.03225798 33.08753634 106.01404735 36.11254883 105.99633789 C38.21252977 105.98126509 40.3124793 105.9608034 42.41235352 105.93481445 C45.43334715 105.89836528 48.45392401 105.88139122 51.47509766 105.86816406 C52.41173752 105.85268021 53.34837738 105.83719635 54.31340027 105.82124329 C59.20508679 105.81998448 62.6620214 105.88359334 66.58837891 109.16113281 C69.78489091 114.89747158 69.37326036 122.08688455 68.15869141 128.39160156 C67.04530822 131.61491463 65.7622548 133.05541876 62.86743164 134.81542969 C56.94788818 137.15127368 50.44995658 136.63374469 44.18603516 136.62988281 C42.780306 136.6369953 41.37457971 136.64469587 39.96885681 136.6529541 C37.0311576 136.66635514 34.09372696 136.66798736 31.15600586 136.66210938 C27.40896715 136.65621381 23.66322441 136.68681688 19.9164362 136.72722626 C17.01571323 136.75319339 14.11529879 136.7559727 11.21447563 136.75233459 C9.83388446 136.75401711 8.45327769 136.76357542 7.07280159 136.78147888 C-0.82244261 136.8726255 -7.42376143 136.84228206 -13.41162109 131.16113281 C-14.64088779 128.70259943 -14.5483035 127.07950369 -14.56552124 124.32940674 C-14.5741217 123.30880157 -14.58272217 122.28819641 -14.59158325 121.23666382 C-14.5958432 120.11249054 -14.60010315 118.98831726 -14.60449219 117.83007812 C-14.61266968 116.64948822 -14.62084717 115.46889832 -14.62927246 114.25253296 C-14.65415881 110.33145502 -14.67080171 106.41038462 -14.68505859 102.48925781 C-14.69041855 101.13910668 -14.69579606 99.78895562 -14.70119095 98.43880463 C-14.72282118 92.82163544 -14.741557 87.20446913 -14.75281334 81.58726883 C-14.7690464 73.53960718 -14.80220601 65.49242884 -14.85921419 57.44494939 C-14.89793746 51.78541409 -14.91744889 46.12600792 -14.9227339 40.46634364 C-14.92638467 37.08677116 -14.93837463 33.70771414 -14.97083664 30.32828522 C-15.00237751 26.55506999 -15.00254062 22.78307752 -14.99511719 19.00976562 C-15.01152252 17.89368927 -15.02792786 16.77761292 -15.04483032 15.62771606 C-14.97670085 7.17644457 -14.97670085 7.17644457 -12.06265259 3.48309326 C-8.07316389 -0.01118245 -5.13562476 0.03000934 0 0 Z " fill="#08151D" transform="translate(462.41162109375,672.8388671875)"/>
<path d="M0 0 C1.30500458 -0.00960754 2.61000916 -0.01921509 3.95455933 -0.02911377 C5.38132553 -0.03396164 6.80809377 -0.0382405 8.23486328 -0.04199219 C9.69833376 -0.04774584 11.16180421 -0.05350355 12.62527466 -0.05926514 C15.69354605 -0.06976685 18.7617913 -0.07561499 21.83007812 -0.07910156 C25.75652433 -0.08458571 29.68262366 -0.10861519 33.60896111 -0.13707352 C36.63218182 -0.15572141 39.65531932 -0.16090662 42.67859268 -0.16243744 C44.12584454 -0.16545947 45.5730951 -0.17347287 47.02029037 -0.18662262 C49.04731099 -0.20372673 51.07447503 -0.19995175 53.1015625 -0.1953125 C54.25389374 -0.19895813 55.40622498 -0.20260376 56.59347534 -0.20635986 C60.03436172 0.20330106 61.90168835 1.13108595 64.68017578 3.16113281 C67.30466042 6.64727054 66.94696744 10.36293696 66.93017578 14.59863281 C66.93791016 16.54576172 66.93791016 16.54576172 66.94580078 18.53222656 C66.69594763 21.94566159 66.30632176 24.1744447 64.68017578 27.16113281 C61.54487349 29.25133434 60.86185808 29.40859231 57.30053711 29.38818359 C56.41985062 29.38803253 55.53916412 29.38788147 54.63179016 29.38772583 C53.68482773 29.37740326 52.7378653 29.36708069 51.76220703 29.35644531 C50.7898259 29.35361542 49.81744476 29.35078552 48.81559753 29.34786987 C45.70783212 29.33666881 42.60035419 29.31156429 39.49267578 29.28613281 C37.38656015 29.27610292 35.28044 29.26697709 33.17431641 29.25878906 C28.00940282 29.23843071 22.84511136 29.1992817 17.68017578 29.16113281 C17.68017578 37.08113281 17.68017578 45.00113281 17.68017578 53.16113281 C20.52126953 53.11472656 23.36236328 53.06832031 26.28955078 53.02050781 C29.04311334 52.98930729 31.79665616 52.96502235 34.55029297 52.94140625 C36.46314314 52.9212983 38.37593189 52.89400774 40.28857422 52.859375 C43.0390539 52.81082032 45.78872055 52.78815624 48.53955078 52.77050781 C49.39385681 52.74986267 50.24816284 52.72921753 51.12835693 52.70794678 C57.07697743 52.70570173 57.07697743 52.70570173 60.20556641 55.06787109 C63.87267224 60.2734614 63.15441183 67.04512309 62.68017578 73.16113281 C61.35093547 76.66549363 60.29676738 78.54454121 57.68017578 81.16113281 C53.65631708 82.47661508 49.60287811 82.28698004 45.41455078 82.25878906 C44.62115295 82.25737411 43.82775513 82.25595917 43.01031494 82.25450134 C40.48356307 82.24891697 37.95690075 82.23636735 35.43017578 82.22363281 C33.71403123 82.21861579 31.99788529 82.21405324 30.28173828 82.20996094 C26.08115543 82.19980479 21.88076552 82.1802264 17.68017578 82.16113281 C17.68017578 90.08113281 17.68017578 98.00113281 17.68017578 106.16113281 C22.35753906 106.10892578 22.35753906 106.10892578 27.12939453 106.05566406 C30.15436894 106.03225798 33.17933321 106.01404735 36.2043457 105.99633789 C38.30432664 105.98126509 40.40427618 105.9608034 42.50415039 105.93481445 C45.52514402 105.89836528 48.54572089 105.88139122 51.56689453 105.86816406 C52.50353439 105.85268021 53.44017426 105.83719635 54.40519714 105.82124329 C59.31974141 105.8199786 62.70556465 105.91949933 66.68017578 109.16113281 C69.29169551 112.64052919 68.980108 116.37166884 68.99267578 120.59863281 C69.00943359 121.89671875 69.02619141 123.19480469 69.04345703 124.53222656 C68.66268135 128.33588896 67.99951652 130.16825987 65.68017578 133.16113281 C60.96021342 136.30777439 56.17677847 136.28536097 50.61816406 136.32226562 C49.44319366 136.33187317 48.26822327 136.34148071 47.05764771 136.35137939 C45.8012851 136.35562927 44.54492249 136.35987915 43.25048828 136.36425781 C41.94618866 136.36995789 40.64188904 136.37565796 39.29806519 136.38153076 C36.54278172 136.39200012 33.78752708 136.3978696 31.03222656 136.40136719 C27.51979438 136.40684997 24.00775018 136.43089015 20.49543953 136.45933914 C17.12213059 136.48255405 13.74887288 136.48442023 10.37548828 136.48925781 C9.12317413 136.50160461 7.87085999 136.51395142 6.58059692 136.52667236 C-0.07546597 136.50976224 -5.35956733 136.25526001 -11.31982422 133.16113281 C-14.12993124 130.17158091 -14.69718921 128.14886907 -14.7142334 124.08889771 C-14.72558319 123.06554321 -14.73693298 122.04218872 -14.74862671 120.98782349 C-14.7442308 119.3123494 -14.7442308 119.3123494 -14.73974609 117.60302734 C-14.74821564 116.42214539 -14.75668518 115.24126343 -14.76541138 114.02459717 C-14.78480066 110.78889512 -14.79055845 107.55354693 -14.78866386 104.31779718 C-14.78854411 101.61410194 -14.79711056 98.91046056 -14.80544138 96.20678031 C-14.82467325 89.82613075 -14.82756038 83.44561201 -14.82080078 77.06494141 C-14.81416243 70.4891533 -14.83701578 63.91392647 -14.87411451 57.33825219 C-14.90483664 51.68713629 -14.91616879 46.03620069 -14.9122777 40.38500297 C-14.91021244 37.0122149 -14.91565353 33.63986347 -14.94017029 30.26715469 C-14.9622899 26.50365888 -14.95269106 22.74151829 -14.93505859 18.97802734 C-14.94832184 17.86509308 -14.96158508 16.75215881 -14.97525024 15.60549927 C-14.8834604 7.1789772 -14.8834604 7.1789772 -11.96887207 3.4850769 C-8.00654724 0.00902743 -5.10242415 0.03027562 0 0 Z " fill="#08141D" transform="translate(259.31982421875,672.8388671875)"/>
<path d="M0 0 C1.50336914 -0.00580078 1.50336914 -0.00580078 3.03710938 -0.01171875 C4.59848633 0.00568359 4.59848633 0.00568359 6.19140625 0.0234375 C7.22845703 0.01183594 8.26550781 0.00023437 9.33398438 -0.01171875 C10.83928711 -0.00591797 10.83928711 -0.00591797 12.375 0 C13.28693115 0.00338379 14.1988623 0.00676758 15.13842773 0.01025391 C19.13071462 0.60278038 21.75777596 2.12477189 24.24707031 5.30761719 C24.66698242 6.05430664 25.08689453 6.80099609 25.51953125 7.5703125 C26.27459961 8.9015918 26.27459961 8.9015918 27.04492188 10.25976562 C27.60888672 11.29552734 28.17285156 12.33128906 28.75390625 13.3984375 C29.0799585 13.99293701 29.40601074 14.58743652 29.74194336 15.19995117 C31.97809265 19.28247181 34.17801376 23.3833508 36.35986328 27.49511719 C37.51062727 29.66108783 38.66918159 31.82277216 39.828125 33.984375 C40.56948537 35.37735149 41.31038729 36.7705721 42.05078125 38.1640625 C42.3934906 38.80168518 42.73619995 39.43930786 43.08929443 40.09625244 C45.03388611 43.78095396 46.5508061 47.41001527 47.75390625 51.3984375 C48.41390625 51.3984375 49.07390625 51.3984375 49.75390625 51.3984375 C50.01204102 50.71612061 50.27017578 50.03380371 50.53613281 49.33081055 C51.93757226 45.95617358 53.5623128 42.72395537 55.23828125 39.48046875 C55.74539642 38.49453987 55.74539642 38.49453987 56.26275635 37.48869324 C56.9777193 36.10050537 57.69386884 34.71292808 58.41113281 33.32592773 C59.49046005 31.23696173 60.56381102 29.14500315 61.63671875 27.05273438 C73.48708895 4.03184615 73.48708895 4.03184615 80.75390625 0.3984375 C84.35097776 0.07831961 87.95684424 0.07411418 91.56640625 0.0234375 C92.56478516 -0.01394531 93.56316406 -0.05132813 94.59179688 -0.08984375 C99.39232808 -0.14741175 101.96007236 -0.13965829 106.015625 2.609375 C107.75390625 5.3984375 107.75390625 5.3984375 107.51074219 7.76733398 C106.72526584 10.49800451 105.70736272 12.77306127 104.3828125 15.28515625 C103.89643311 16.21352295 103.41005371 17.14188965 102.90893555 18.09838867 C102.38340088 19.08427979 101.85786621 20.0701709 101.31640625 21.0859375 C100.77218018 22.11759033 100.2279541 23.14924316 99.66723633 24.2121582 C96.11884886 30.91132712 92.48571278 37.55906824 88.77148438 44.16748047 C83.99963213 52.68132973 79.42829569 61.30370109 74.8425293 69.91870117 C74.22676025 71.07345947 73.61099121 72.22821777 72.9765625 73.41796875 C72.42750244 74.45026611 71.87844238 75.48256348 71.31274414 76.54614258 C69.75390625 79.3984375 69.75390625 79.3984375 68.07788086 81.66699219 C66.09760905 85.75242111 66.33253991 89.59930695 66.34765625 94.08203125 C66.33140198 95.48171898 66.33140198 95.48171898 66.31481934 96.90968323 C66.28061671 99.88517213 66.26497802 102.86027804 66.25390625 105.8359375 C66.2393107 109.7516689 66.20557933 113.66654943 66.16015625 117.58203125 C66.16317749 118.47595078 66.16619873 119.3698703 66.16931152 120.2908783 C66.10821966 125.39220119 65.64174832 129.00516255 62.75390625 133.3984375 C56.34552556 137.75650414 49.19690242 136.99841758 41.75390625 136.3984375 C38.80102535 135.75161597 37.33028689 135.07608071 34.75390625 133.3984375 C33.00183616 130.60227647 32.52103289 128.58969856 32.65722656 125.31787109 C32.69424431 124.12137688 32.69424431 124.12137688 32.73200989 122.90071106 C32.78152046 121.61181221 32.78152046 121.61181221 32.83203125 120.296875 C33.32082303 97.83016564 32.87337064 81.52781936 19.81689453 62.51806641 C16.41653219 57.3760747 13.55941689 51.94656797 10.64038086 46.521698 C8.98933384 43.46394338 7.3072528 40.42347732 5.625 37.3828125 C5.30115326 36.79604233 4.97730652 36.20927216 4.64364624 35.60472107 C2.46947494 31.6711969 0.26062667 27.75847171 -1.9609375 23.8515625 C-2.5286084 22.8419043 -3.0962793 21.83224609 -3.68115234 20.79199219 C-4.73616124 18.9162098 -5.802254 17.04660152 -6.88134766 15.18457031 C-7.57429932 13.94465332 -7.57429932 13.94465332 -8.28125 12.6796875 C-8.68738525 11.96876953 -9.09352051 11.25785156 -9.51196289 10.52539062 C-10.4853249 7.70532749 -10.25428159 6.19372641 -9.24609375 3.3984375 C-6.35113986 0.41506629 -4.07207927 0.01512847 0 0 Z " fill="#08141D" transform="translate(123.24609375,672.6015625)"/>
<path d="M0 0 C0.65550339 -0.00817749 1.31100677 -0.01635498 1.9863739 -0.02478027 C4.15911953 -0.04962453 6.33179986 -0.06614802 8.50463867 -0.08056641 C9.24677801 -0.08589008 9.98891735 -0.09121376 10.75354576 -0.09669876 C14.68204084 -0.12342673 18.61050418 -0.1428023 22.5390625 -0.15722656 C26.59467449 -0.17386997 30.64947313 -0.21864478 34.70477772 -0.26959801 C37.82493511 -0.30327254 40.94489952 -0.31480411 44.06522179 -0.32045364 C45.55996603 -0.32716614 47.05469757 -0.3423885 48.54926491 -0.36634445 C50.64419212 -0.39800619 52.7369271 -0.39803322 54.83203125 -0.390625 C56.61834709 -0.40275528 56.61834709 -0.40275528 58.44075012 -0.41513062 C62.53534015 0.37036546 64.01721514 2.00436513 66.61010742 5.19287109 C67.25708008 7.42529297 67.25708008 7.42529297 67.27416992 9.66162109 C67.28061523 10.48017578 67.28706055 11.29873047 67.29370117 12.14208984 C67.27436523 12.98384766 67.2550293 13.82560547 67.23510742 14.69287109 C67.25444336 15.53462891 67.2737793 16.37638672 67.29370117 17.24365234 C67.28725586 18.06220703 67.28081055 18.88076172 67.27416992 19.72412109 C67.26853027 20.46210937 67.26289062 21.20009766 67.25708008 21.96044922 C66.20834508 25.57917858 64.6399692 26.97606911 61.61010742 29.19287109 C58.30023815 29.86544517 55.08128706 29.77610227 51.71557617 29.68115234 C50.76822098 29.67407761 49.82086578 29.66700287 48.84480286 29.65971375 C45.82825721 29.63179443 42.81358903 29.56906024 39.79760742 29.50537109 C37.74880616 29.48028505 35.69997572 29.45747242 33.65112305 29.43701172 C28.63615156 29.38623234 23.62522276 29.28837689 18.61010742 29.19287109 C18.94010742 37.77287109 19.27010742 46.35287109 19.61010742 55.19287109 C23.43862305 55.24894531 23.43862305 55.24894531 27.34448242 55.30615234 C29.82015486 55.35238197 32.29567696 55.40361029 34.77124023 55.45532227 C36.48989707 55.4885479 38.20866241 55.51658725 39.92749023 55.53930664 C42.40029065 55.5728967 44.87209898 55.62521287 47.34448242 55.68115234 C48.11129333 55.68754227 48.87810425 55.69393219 49.66815186 55.70051575 C53.88707839 55.81643037 56.60468447 56.09628749 59.61010742 59.19287109 C61.13177201 62.76230771 60.81463141 66.80659638 60.86010742 70.63037109 C60.88588867 71.92845703 60.91166992 73.22654297 60.93823242 74.56396484 C60.58942596 78.42159821 60.07809721 80.23664854 57.61010742 83.19287109 C53.38257259 85.4341325 49.3579019 85.45538401 44.68432617 85.38818359 C43.93673538 85.3853537 43.18914459 85.3825238 42.41889954 85.37960815 C40.04496862 85.36846578 37.67142317 85.34337271 35.29760742 85.31787109 C33.68237852 85.30783359 32.06714367 85.29870909 30.4519043 85.29052734 C26.50449148 85.26854598 22.55736468 85.23405766 18.61010742 85.19287109 C18.63105469 86.49957764 18.65200195 87.80628418 18.67358398 89.15258789 C18.74606296 94.00729383 18.79193617 98.86195208 18.82983398 103.71704102 C18.84993139 105.81705776 18.87721408 107.91701868 18.91186523 110.0168457 C18.96046513 113.03790068 18.98309504 116.05821486 19.00073242 119.07958984 C19.02137756 120.01622971 19.04202271 120.95286957 19.06329346 121.91789246 C19.06475894 126.18901704 19.0130731 128.53872574 16.73046875 132.24414062 C12.41852603 136.20705678 8.39453667 136.48673289 2.67260742 136.50537109 C1.48795898 136.52212891 0.30331055 136.53888672 -0.91723633 136.55615234 C-5.51720627 136.07494064 -8.86590293 134.85025476 -12.03687286 131.40173149 C-13.65834924 128.75460455 -13.77133798 127.20864312 -13.78430176 124.12063599 C-13.79565155 123.09728149 -13.80700134 122.073927 -13.81869507 121.01956177 C-13.81429916 119.34408768 -13.81429916 119.34408768 -13.80981445 117.63476562 C-13.818284 116.45388367 -13.82675354 115.27300171 -13.83547974 114.05633545 C-13.85486902 110.8206334 -13.86062681 107.58528521 -13.85873222 104.34953547 C-13.85861246 101.64584022 -13.86717892 98.94219884 -13.87550974 96.2385186 C-13.89474161 89.85786903 -13.89762874 83.47735029 -13.89086914 77.09667969 C-13.88423079 70.52089158 -13.90708414 63.94566475 -13.94418287 57.36999047 C-13.974905 51.71887457 -13.98623715 46.06793897 -13.98234606 40.41674125 C-13.9802808 37.04395319 -13.98572189 33.67160175 -14.01023865 30.29889297 C-14.03235826 26.53539716 -14.02275942 22.77325658 -14.00512695 19.00976562 C-14.0183902 17.89683136 -14.03165344 16.78389709 -14.0453186 15.63723755 C-13.95354657 7.21235024 -13.95354657 7.21235024 -10.97644043 3.51681519 C-7.10146366 0.03525215 -5.14546008 0.05567797 0 0 Z " fill="#08141D" transform="translate(602.389892578125,672.80712890625)"/>
<path d="M0 0 C3.98165489 4.43130168 3.98165489 4.43130168 4.0625 6.9375 C-2.02726632 18.75881109 -16.31769757 25.90572105 -28.33203125 30.1875 C-52.40812864 37.81113037 -76.55498584 36.67966393 -99.24560547 24.97070312 C-103.85422021 22.42076544 -107.97356899 19.37872984 -112 16 C-112.74636719 15.38898438 -113.49273437 14.77796875 -114.26171875 14.1484375 C-117.92995372 10.87657369 -117.92995372 10.87657369 -119 9 C-118.92872508 5.39824046 -118.52732894 3.6013982 -116.13671875 0.875 C-83.3013144 -24.26215165 -33.03652416 -25.67027215 0 0 Z " fill="#DA422A" transform="translate(570,470)"/>
<path d="M0 0 C6.8772678 4.71992729 11.1832523 10.37660417 13.8359375 18.28125 C15.90895035 29.51814206 15.06069963 41.52656954 8.5234375 51.07421875 C3.27782625 57.53438271 -1.82928289 61.01059827 -10.1484375 61.91796875 C-19.70664373 62.25459714 -25.50598491 60.72777514 -32.49609375 54.296875 C-40.41282584 45.85716972 -42.22952084 35.55681814 -42.0625 24.27734375 C-41.34636995 15.83408209 -37.48462788 7.72924315 -31.08203125 2.078125 C-21.72142636 -5.01449192 -10.24656747 -5.85518141 0 0 Z " fill="#09141E" transform="translate(599.74609375,311.453125)"/>
<path d="M0 0 C8.26132973 5.00287697 12.41469489 12.00970999 14.9609375 21.1875 C15.97843916 33.08037659 14.74540449 43.29103539 7.77734375 53.140625 C3.36475257 58.11309334 -2.3910832 61.85927564 -9.078125 62.4609375 C-18.41075287 62.72526029 -23.98616008 61.63646986 -31 55.4609375 C-38.90640509 47.35437026 -40.714088 37.85706548 -40.65039062 26.89770508 C-40.26214623 17.85674918 -36.75144968 10.83464692 -30.6640625 4.1875 C-21.71994917 -3.78230905 -10.90713605 -5.67013571 0 0 Z " fill="#09141E" transform="translate(453.0390625,310.8125)"/>
<path d="M0 0 C8.08021865 5.23766616 16.80404534 11.77750709 19.8125 21.3125 C20.30860859 26.13184062 19.45758324 29.2928523 16.875 33.375 C13.15504859 35.72843864 10.72131795 36.14933206 6.3671875 35.9296875 C1.74003278 34.8118122 -0.98535867 31.67001949 -4.1875 28.3125 C-9.44569265 23.06665053 -14.76168718 19.63791103 -22.1875 18.3125 C-25.1214938 18.35801542 -28.01925122 18.64315668 -30.9375 18.9375 C-39.92279131 19.79992313 -39.92279131 19.79992313 -43.6875 16.9375 C-46.36952687 13.82172215 -47.44629543 10.64725068 -47.5703125 6.5546875 C-46.83932906 2.27321308 -44.57375603 -0.11447869 -41.1875 -2.6875 C-28.25868251 -10.54710487 -12.51178229 -7.01832788 0 0 Z " fill="#0A141F" transform="translate(616.1875,256.6875)"/>
<path d="M0 0 C3.57172331 2.62412325 5.21251331 4.64670179 6.0625 8.9375 C6.27886707 12.21391561 5.90581962 13.19198308 4.375 16.3125 C1.53291213 19.52854681 -0.69108462 21.81458392 -5.14941406 22.17260742 C-8.58359445 22.14400074 -12.00283622 21.98157566 -15.43164062 21.79492188 C-23.12469073 21.55687278 -27.84441793 23.48512313 -33.828125 28.25390625 C-34.62734375 29.01574219 -35.4265625 29.77757812 -36.25 30.5625 C-44.59131892 38.43893649 -44.59131892 38.43893649 -49.9375 38.5625 C-53.93119424 38.42092147 -54.82829584 38.13392924 -58.125 35.5625 C-60.30229362 32.25767933 -60.72757504 29.19781732 -60.47265625 25.2890625 C-58.62640474 16.34771221 -50.2605904 8.93305624 -43.06640625 3.98046875 C-29.80256299 -4.04542367 -14.38876708 -8.45582651 0 0 Z " fill="#0A141F" transform="translate(451,254)"/>
<path d="M0 0 C4.60011172 4.05247937 7.3278145 7.28120787 7.9375 13.5 C7.55362564 18.18326724 6.34445673 21.48696454 3.625 25.3125 C-1.64079782 29.50364521 -5.67382928 30.76681666 -12.375 30.3125 C-18.05049553 28.26932161 -21.67373721 24.71502559 -24.375 19.3125 C-25.13538689 12.49394874 -24.6292913 7.76671962 -20.375 2.3125 C-14.11369126 -2.57132082 -7.22983116 -3.61491558 0 0 Z " fill="#08141C" transform="translate(568.375,778.6875)"/>
<path d="M0 0 C12.87 0 25.74 0 39 0 C39 0.33 39 0.66 39 1 C26.79 1 14.58 1 2 1 C2 8.92 2 16.84 2 25 C12.56 25 23.12 25 34 25 C34.495 25.99 34.495 25.99 35 27 C30.17619198 27.0246519 25.35242033 27.04283693 20.52856445 27.05493164 C18.88630536 27.05997174 17.24405077 27.06680378 15.60180664 27.07543945 C13.24624521 27.08751926 10.89074291 27.09323139 8.53515625 27.09765625 C7.79660904 27.10281754 7.05806183 27.10797882 6.2971344 27.11329651 C4.53101912 27.1134925 2.76502854 27.06194719 1 27 C0 26 0 26 -0.11352539 23.49975586 C-0.10828857 22.41573486 -0.10305176 21.33171387 -0.09765625 20.21484375 C-0.09515869 19.16159912 -0.09266113 18.10835449 -0.09008789 17.02319336 C-0.08098389 15.67491455 -0.07187988 14.32663574 -0.0625 12.9375 C-0.041875 8.668125 -0.02125 4.39875 0 0 Z " fill="#D7DCDC" transform="translate(621,702)"/>
<path d="M0 0 C0.66 0.33 1.32 0.66 2 1 C1.67 1.66 1.34 2.32 1 3 C0.89779956 4.356873 0.85420719 5.71843733 0.84228516 7.07910156 C0.83202301 7.92047668 0.82176086 8.76185181 0.81118774 9.62872314 C0.80388641 10.54015076 0.79658508 11.45157837 0.7890625 12.390625 C0.76098609 14.31641464 0.73232157 16.24219577 0.703125 18.16796875 C0.66191521 21.20719088 0.62503252 24.24625566 0.59863281 27.28564453 C0.57095784 30.21680628 0.52507705 33.14724386 0.4765625 36.078125 C0.47330963 36.98145569 0.47005676 37.88478638 0.46670532 38.81549072 C0.36764687 43.92184881 -0.09935576 47.60540499 -3 52 C-5.1875 52.875 -5.1875 52.875 -7 53 C-6.34805664 52.38358643 -5.69611328 51.76717285 -5.02441406 51.13208008 C-2.15846526 46.69801626 -2.49546269 43.05475336 -2.609375 37.88671875 C-2.61786469 36.43239189 -2.61786469 36.43239189 -2.62652588 34.94868469 C-2.64886294 31.86111454 -2.69905502 28.77471761 -2.75 25.6875 C-2.77006842 23.59051159 -2.78831859 21.49350493 -2.8046875 19.39648438 C-2.84871913 14.26387293 -2.91772889 9.13213518 -3 4 C-2.34 4 -1.68 4 -1 4 C-0.67 2.68 -0.34 1.36 0 0 Z " fill="#141C21" transform="translate(189,754)"/>
<path d="M0 0 C1.44342773 0.0009668 1.44342773 0.0009668 2.91601562 0.00195312 C7.33095583 0.02945102 11.36412243 0.2214494 15.6875 1.1875 C15.6875 1.5175 15.6875 1.8475 15.6875 2.1875 C11.7275 2.1875 7.7675 2.1875 3.6875 2.1875 C3.3575 3.1775 3.0275 4.1675 2.6875 5.1875 C2.6875 3.8675 2.6875 2.5475 2.6875 1.1875 C1.6975 1.8475 0.7075 2.5075 -0.3125 3.1875 C-0.3125 3.8475 -0.3125 4.5075 -0.3125 5.1875 C-0.9725 5.1875 -1.6325 5.1875 -2.3125 5.1875 C-1.65664811 8.79742379 -1.65664811 8.79742379 -0.3125 12.1875 C-1.3025 12.5175 -2.2925 12.8475 -3.3125 13.1875 C-5.71813753 10.78186247 -5.91608311 9.51740189 -6.3125 6.1875 C-5.875 3.875 -5.875 3.875 -5.3125 2.1875 C-10.7032997 2.41754734 -10.7032997 2.41754734 -15.3125 4.75 C-15.6425 5.224375 -15.9725 5.69875 -16.3125 6.1875 C-16.6425 5.5275 -16.9725 4.8675 -17.3125 4.1875 C-18.6325 4.1875 -19.9525 4.1875 -21.3125 4.1875 C-21.3125 3.5275 -21.3125 2.8675 -21.3125 2.1875 C-14.12775116 0.4577112 -7.37635013 -0.09579675 0 0 Z M0.6875 8.1875 C1.0175 9.1775 1.3475 10.1675 1.6875 11.1875 C1.0275 10.8575 0.3675 10.5275 -0.3125 10.1875 C0.0175 9.5275 0.3475 8.8675 0.6875 8.1875 Z " fill="#E3462C" transform="translate(513.3125,451.8125)"/>
<path d="M0 0 C-0.375 2.4375 -0.375 2.4375 -1 5 C-1.99 5.495 -1.99 5.495 -3 6 C-3.33 37.35 -3.66 68.7 -4 101 C-4.33 101 -4.66 101 -5 101 C-5 68 -5 35 -5 2 C-2 0 -2 0 0 0 Z " fill="#101D26" transform="translate(816,673)"/>
<path d="M0 0 C12.87 0 25.74 0 39 0 C39 0.33 39 0.66 39 1 C33.06 1.495 33.06 1.495 27 2 C27 2.33 27 2.66 27 3 C19.08 3 11.16 3 3 3 C3 5.64 3 8.28 3 11 C2.67 11 2.34 11 2 11 C1.67 15.29 1.34 19.58 1 24 C0.67 24 0.34 24 0 24 C0 16.08 0 8.16 0 0 Z " fill="#C3C8C8" transform="translate(277,702)"/>
<path d="M0 0 C5.78406969 -0.07410115 11.56786371 -0.12857885 17.35229492 -0.16479492 C19.32044283 -0.17989082 21.28855706 -0.20036948 23.2565918 -0.22631836 C26.08390612 -0.26266649 28.9107761 -0.27971814 31.73828125 -0.29296875 C33.06029289 -0.31619453 33.06029289 -0.31619453 34.40901184 -0.33988953 C35.22963608 -0.34011612 36.05026031 -0.34034271 36.89575195 -0.34057617 C37.61745071 -0.34723801 38.33914948 -0.35389984 39.0827179 -0.36076355 C41.52978289 0.09968609 42.42495885 1.12700892 44 3 C13.87347956 3.41277905 13.87347956 3.41277905 0 1 C0 0.67 0 0.34 0 0 Z " fill="#161F25" transform="translate(493,168)"/>
<path d="M0 0 C0.02697137 2.60423592 0.04682489 5.20819244 0.0625 7.8125 C0.07087891 8.55048828 0.07925781 9.28847656 0.08789062 10.04882812 C0.10259828 13.29922068 0.03531702 15.89404895 -1 19 C0.32 19.33 1.64 19.66 3 20 C3 21.98 3 23.96 3 26 C2.67 25.34 2.34 24.68 2 24 C-0.02463255 23.34786708 -0.02463255 23.34786708 -2 23 C-2.83211276 17.96145894 -3.1078534 13.1874338 -3.0625 8.0625 C-3.05798828 7.37865234 -3.05347656 6.69480469 -3.04882812 5.99023438 C-3.0371956 4.32678396 -3.01926694 2.6633795 -3 1 C-1 0 -1 0 0 0 Z " fill="#151A1E" transform="translate(403,407)"/>
<path d="M0 0 C0.66 0 1.32 0 2 0 C3.49368864 2.98737728 3.18437999 6.03960907 3.1875 9.3125 C3.20167969 10.62863281 3.21585937 11.94476562 3.23046875 13.30078125 C3.01736646 16.72125367 2.49124982 18.95266341 1 22 C0.34 21.67 -0.32 21.34 -1 21 C-1.625 18.9375 -1.625 18.9375 -2 17 C-1.34 17 -0.68 17 0 17 C0 11.39 0 5.78 0 0 Z " fill="#161B1D" transform="translate(323,678)"/>
<path d="M0 0 C1.99954746 -0.04254356 4.00041636 -0.04080783 6 0 C6.33 0.33 6.66 0.66 7 1 C9.01964199 1.07244053 11.04167124 1.08377188 13.0625 1.0625 C14.16722656 1.05347656 15.27195312 1.04445313 16.41015625 1.03515625 C17.26480469 1.02355469 18.11945313 1.01195312 19 1 C19 1.33 19 1.66 19 2 C22.3 2.33 25.6 2.66 29 3 C29 3.33 29 3.66 29 4 C25.68751922 4.02945031 22.37507289 4.04694801 19.0625 4.0625 C17.67321289 4.07506836 17.67321289 4.07506836 16.25585938 4.08789062 C10.41699697 4.10837786 4.79086947 3.75429787 -1 3 C-0.67 2.01 -0.34 1.02 0 0 Z " fill="#151E22" transform="translate(445,585)"/>
<path d="M0 0 C0 0.66 0 1.32 0 2 C-3.86723631 3.26582219 -7.73151262 3.1118765 -11.75 3.0625 C-12.44738281 3.05798828 -13.14476562 3.05347656 -13.86328125 3.04882812 C-15.57555803 3.0371002 -17.28779033 3.01916653 -19 3 C-19.33 2.34 -19.66 1.68 -20 1 C-17.00537986 -0.49731007 -13.85351141 -0.41447434 -10.5625 -0.625 C-9.88123047 -0.6765625 -9.19996094 -0.728125 -8.49804688 -0.78125 C-5.31443496 -0.99328292 -3.05859194 -1.01953065 0 0 Z " fill="#1C2429" transform="translate(836,806)"/>
<path d="M0 0 C0 0.99 0 1.98 0 3 C-14.85 2.67 -29.7 2.34 -45 2 C-45 1.67 -45 1.34 -45 1 C-39.0734972 0.85712861 -33.14698344 0.71472394 -27.22045898 0.57275391 C-25.20385433 0.52438007 -23.18725274 0.47587815 -21.1706543 0.42724609 C-18.27393374 0.35741126 -15.3772025 0.28803534 -12.48046875 0.21875 C-11.12564644 0.18593933 -11.12564644 0.18593933 -9.74345398 0.15246582 C-8.90280899 0.13244507 -8.062164 0.11242432 -7.19604492 0.09179688 C-6.08684944 0.06514954 -6.08684944 0.06514954 -4.95524597 0.03796387 C-3.30376011 0.00589793 -1.65179713 0 0 0 Z " fill="#132028" transform="translate(321,699)"/>
<path d="M0 0 C0.66 0.33 1.32 0.66 2 1 C2 6.28 2 11.56 2 17 C1.01 17 0.02 17 -1 17 C-1.02684679 14.35409986 -1.04676357 11.70846904 -1.0625 9.0625 C-1.07087891 8.30775391 -1.07925781 7.55300781 -1.08789062 6.77539062 C-1.09652441 4.85005687 -1.05224333 2.92464419 -1 1 C-0.67 0.67 -0.34 0.34 0 0 Z " fill="#121A20" transform="translate(421,731)"/>
<path d="M0 0 C1.1446875 -0.00515625 2.289375 -0.0103125 3.46875 -0.015625 C6.5 0.25 6.5 0.25 9.5 2.25 C9.5 2.91 9.5 3.57 9.5 4.25 C10.49 4.58 11.48 4.91 12.5 5.25 C11.51 5.745 11.51 5.745 10.5 6.25 C9.571875 5.79625 8.64375 5.3425 7.6875 4.875 C2.29336641 2.36156329 -3.64606759 2.50528427 -9.5 2.25 C-5.92878282 -0.13081145 -4.23325367 -0.01906871 0 0 Z " fill="#F3CB22" transform="translate(588.5,305.75)"/>
<path d="M0 0 C0.66 0 1.32 0 2 0 C2.33 0.99 2.66 1.98 3 3 C8.94 3.99 8.94 3.99 15 5 C15 5.99 15 6.98 15 8 C9.79304044 8.31241757 6.37516653 7.95069371 2 5 C0.625 2.3125 0.625 2.3125 0 0 Z " fill="#151D22" transform="translate(548,801)"/>
<path d="M0 0 C0.433125 0.495 0.86625 0.99 1.3125 1.5 C2.99740483 3.33218192 2.99740483 3.33218192 6 3 C4.58994275 4.15395711 3.17166542 5.29787466 1.75 6.4375 C0.56664062 7.39462891 0.56664062 7.39462891 -0.640625 8.37109375 C-2.86247492 9.90505305 -4.36743482 10.57130246 -7 11 C-5.68822142 8.0737247 -4.24710766 6.24710766 -2 4 C-0.82425289 1.90010348 -0.82425289 1.90010348 0 0 Z " fill="#E7472D" transform="translate(560,483)"/>
<path d="M0 0 C4.82043259 0.60722504 8.54860666 2.65061441 12.75 4.9375 C13.43449219 5.29779297 14.11898437 5.65808594 14.82421875 6.02929688 C19.87138731 8.74277463 19.87138731 8.74277463 21 11 C19.54052295 10.93993922 18.08220728 10.8511311 16.625 10.75 C15.40683594 10.68039063 15.40683594 10.68039063 14.1640625 10.609375 C13.44992187 10.40828125 12.73578125 10.2071875 12 10 C11.31573331 8.67561285 10.650842 7.34112897 10 6 C7.61477059 4.44554733 7.61477059 4.44554733 4.875 3.25 C3.96492187 2.82203125 3.05484375 2.3940625 2.1171875 1.953125 C1.06917969 1.48132813 1.06917969 1.48132813 0 1 C0 0.67 0 0.34 0 0 Z " fill="#F5CF23" transform="translate(613,215)"/>
<path d="M0 0 C0.99 0 1.98 0 3 0 C3 4.95 3 9.9 3 15 C2.01 15.33 1.02 15.66 0 16 C-0.19504458 13.89651926 -0.38078496 11.79217415 -0.5625 9.6875 C-0.66691406 8.51574219 -0.77132813 7.34398437 -0.87890625 6.13671875 C-1 3 -1 3 0 0 Z " fill="#141E25" transform="translate(426,786)"/>
<path d="M0 0 C0.33 0 0.66 0 1 0 C1 7.26 1 14.52 1 22 C0.67 22 0.34 22 0 22 C0 19.36 0 16.72 0 14 C-0.66 14 -1.32 14 -2 14 C-2 11.69 -2 9.38 -2 7 C-1.67 7 -1.34 7 -1 7 C-0.67 4.69 -0.34 2.38 0 0 Z " fill="#0F1B23" transform="translate(282,374)"/>
<path d="M0 0 C0.99 0.33 1.98 0.66 3 1 C3 4.96 3 8.92 3 13 C2.01 13.33 1.02 13.66 0 14 C0 9.38 0 4.76 0 0 Z " fill="#131E24" transform="translate(528,786)"/>
<path d="M0 0 C0.66 0.33 1.32 0.66 2 1 C1.12499183 2.34709162 0.22409067 3.67738986 -0.6875 5 C-1.18636719 5.7425 -1.68523437 6.485 -2.19921875 7.25 C-4 9 -4 9 -6.70703125 9.25 C-7.46371094 9.1675 -8.22039062 9.085 -9 9 C-6.21000549 5.51250686 -3.74764169 2.49842779 0 0 Z " fill="#080E13" transform="translate(363,215)"/>
<path d="M0 0 C-1.75864246 2.1793144 -2.69396 2.93686419 -5.48046875 3.51171875 C-6.82044922 3.59873047 -6.82044922 3.59873047 -8.1875 3.6875 C-9.08855469 3.75324219 -9.98960937 3.81898438 -10.91796875 3.88671875 C-11.60503906 3.92410156 -12.29210937 3.96148437 -13 4 C-11.72807637 1.45615274 -10.80051531 1.30631844 -8.1875 0.3125 C-7.50042969 0.04050781 -6.81335938 -0.23148437 -6.10546875 -0.51171875 C-3.70623504 -1.06812731 -2.3105636 -0.77364938 0 0 Z M-6 3 C-4 4 -4 4 -4 4 Z " fill="#E9492D" transform="translate(481,459)"/>
<path d="M0 0 C0.33 0 0.66 0 1 0 C1.2210949 2.95789127 1.42740245 5.91552764 1.625 8.875 C1.68945312 9.71675781 1.75390625 10.55851563 1.8203125 11.42578125 C1.871875 12.23144531 1.9234375 13.03710938 1.9765625 13.8671875 C2.02893066 14.61081543 2.08129883 15.35444336 2.13525391 16.12060547 C2 18 2 18 0 20 C-0.66 18.35 -1.32 16.7 -2 15 C-1.34 15 -0.68 15 0 15 C0 10.05 0 5.1 0 0 Z " fill="#131F27" transform="translate(323,680)"/>
<path d="M0 0 C0.99386719 0.00902344 1.98773438 0.01804687 3.01171875 0.02734375 C4.15060547 0.04474609 4.15060547 0.04474609 5.3125 0.0625 C5.3125 0.3925 5.3125 0.7225 5.3125 1.0625 C3.9203125 1.2171875 3.9203125 1.2171875 2.5 1.375 C-0.72004358 2.0695192 -1.71329865 2.53990939 -3.6875 5.0625 C-4.0175 4.4025 -4.3475 3.7425 -4.6875 3.0625 C-6.0075 3.0625 -7.3275 3.0625 -8.6875 3.0625 C-8.6875 2.4025 -8.6875 1.7425 -8.6875 1.0625 C-5.53819107 0.01273036 -3.29935544 -0.03881595 0 0 Z " fill="#EB492E" transform="translate(500.6875,452.9375)"/>
<path d="M0 0 C0.78375 0.04125 1.5675 0.0825 2.375 0.125 C2.375 1.115 2.375 2.105 2.375 3.125 C-1.6063783 4.4521261 -5.47545227 4.19415913 -9.625 4.125 C-9.625 3.795 -9.625 3.465 -9.625 3.125 C-8.84125 3.00125 -8.0575 2.8775 -7.25 2.75 C-3.99140815 1.9741448 -3.37025872 0.16048851 0 0 Z " fill="#162026" transform="translate(475.625,169.875)"/>
<path d="M0 0 C0.66 0.33 1.32 0.66 2 1 C1.29666462 3.97722547 0.41751463 6.85256543 -0.5625 9.75 C-0.96662109 10.94882812 -0.96662109 10.94882812 -1.37890625 12.171875 C-1.58386719 12.77515625 -1.78882813 13.3784375 -2 14 C-2.66 14 -3.32 14 -4 14 C-3.52188823 12.22888156 -3.0424722 10.45811517 -2.5625 8.6875 C-2.29566406 7.70136719 -2.02882813 6.71523438 -1.75390625 5.69921875 C-1.21920575 3.78482474 -0.62855462 1.88566385 0 0 Z " fill="#F3CF24" transform="translate(622,434)"/>
<path d="M0 0 C2 1 2 1 3 3 C2.16855469 3.30744141 2.16855469 3.30744141 1.3203125 3.62109375 C0.59585938 3.89050781 -0.12859375 4.15992188 -0.875 4.4375 C-1.95394531 4.83775391 -1.95394531 4.83775391 -3.0546875 5.24609375 C-5.03648845 5.97916854 -5.03648845 5.97916854 -7 7 C-5.55609075 3.19333016 -3.65047197 1.73397418 0 0 Z " fill="#090F13" transform="translate(253,673)"/>
<path d="M0 0 C3.3 0.66 6.6 1.32 10 2 C5.46780033 4.26609984 3.82227075 3.92735976 -1 3 C-0.67 2.01 -0.34 1.02 0 0 Z " fill="#F8CA23" transform="translate(561,198)"/>
<path d="M0 0 C2.64 0.33 5.28 0.66 8 1 C8 1.99 8 2.98 8 4 C5.36 3.67 2.72 3.34 0 3 C0 2.01 0 1.02 0 0 Z " fill="#EBB721" transform="translate(467,405)"/>
<path d="M0 0 C2.875 0.3125 2.875 0.3125 6 1 C6.66 1.99 7.32 2.98 8 4 C7.01 5.485 7.01 5.485 6 7 C6 5.68 6 4.36 6 3 C4.02 3 2.04 3 0 3 C0 2.01 0 1.02 0 0 Z " fill="#141B20" transform="translate(520,673)"/>
<path d="M0 0 C0.99 0.495 0.99 0.495 2 1 C2 1.66 2 2.32 2 3 C2.99 3 3.98 3 5 3 C5.33 5.31 5.66 7.62 6 10 C5.67 9.34 5.34 8.68 5 8 C4.34 8 3.68 8 3 8 C0 2.25 0 2.25 0 0 Z " fill="#F7C922" transform="translate(632,270)"/>
<path d="M0 0 C3.3 0 6.6 0 10 0 C9.01 1.485 9.01 1.485 8 3 C6.0546875 3.29296875 6.0546875 3.29296875 3.875 3.1875 C2.59625 3.125625 1.3175 3.06375 0 3 C0 2.01 0 1.02 0 0 Z " fill="#192128" transform="translate(481,169)"/>
<path d="M0 0 C0 0.33 0 0.66 0 1 C-3.3 1.66 -6.6 2.32 -10 3 C-10 2.01 -10 1.02 -10 0 C-6.7169902 -1.6415049 -3.57454967 -0.51888624 0 0 Z " fill="#16111C" transform="translate(495,453)"/>
<path d="M0 0 C0.33 0 0.66 0 1 0 C0.4140625 6.15234375 0.4140625 6.15234375 0 8 C-0.99 8.495 -0.99 8.495 -2 9 C-2.90870687 6.45562075 -3.14745938 5.36864845 -2.125 2.8125 C-1 1 -1 1 0 0 Z " fill="#EFB523" transform="translate(615,348)"/>
<path d="M0 0 C0.99 0.33 1.98 0.66 3 1 C3 3.31 3 5.62 3 8 C2.01 8.33 1.02 8.66 0 9 C0 6.03 0 3.06 0 0 Z " fill="#101B23" transform="translate(573,788)"/>
<path d="M0 0 C1.98 0.99 1.98 0.99 4 2 C3.625 4.4375 3.625 4.4375 3 7 C2.01 7.495 2.01 7.495 1 8 C0.67 5.36 0.34 2.72 0 0 Z " fill="#151D22" transform="translate(227,676)"/>
<path d="M0 0 C0.99 0 1.98 0 3 0 C3 2.31 3 4.62 3 7 C1.68 6.34 0.36 5.68 -1 5 C-0.67 3.35 -0.34 1.7 0 0 Z " fill="#172126" transform="translate(114,676)"/>
<path d="M0 0 C0.66 0.33 1.32 0.66 2 1 C0.54735962 1.8638129 -0.9123163 2.71580454 -2.375 3.5625 C-3.59316406 4.27599609 -3.59316406 4.27599609 -4.8359375 5.00390625 C-5.55007813 5.33261719 -6.26421875 5.66132812 -7 6 C-7.66 5.67 -8.32 5.34 -9 5 C-7 2 -7 2 -4.5 1.375 C-3.2625 1.189375 -3.2625 1.189375 -2 1 C-1.34 0.67 -0.68 0.34 0 0 Z " fill="#F2D124" transform="translate(571,580)"/>
<path d="M0 0 C0.33 0 0.66 0 1 0 C1.36923077 6.52307692 1.36923077 6.52307692 -0.5 8.9375 C-0.995 9.288125 -1.49 9.63875 -2 10 C-2.99 9.67 -3.98 9.34 -5 9 C-4.34 8.67 -3.68 8.34 -3 8 C-2.67 7.01 -2.34 6.02 -2 5 C-1.34 5 -0.68 5 0 5 C0 3.35 0 1.7 0 0 Z " fill="#090C0F" transform="translate(427,797)"/>
<path d="M0 0 C2.89932357 2.39509338 3.50168276 4.31245243 4 8 C3.01 8.495 3.01 8.495 2 9 C0.50178941 5.62902617 0 3.79557881 0 0 Z " fill="#111A21" transform="translate(144,733)"/>
<path d="M0 0 C0.66 0.33 1.32 0.66 2 1 C1.01 2.32 0.02 3.64 -1 5 C-2.32 4.67 -3.64 4.34 -5 4 C-3.36587557 2.29159719 -2.13093906 1.06546953 0 0 Z " fill="#F9C723" transform="translate(558,516)"/>
<path d="M0 0 C1 3 1 3 -0.4375 6.1875 C-1.2109375 7.5796875 -1.2109375 7.5796875 -2 9 C-2.66 8.34 -3.32 7.68 -4 7 C-3.68134222 3.70720291 -2.45484649 2.13464912 0 0 Z " fill="#EBC323" transform="translate(694,482)"/>
<path d="M0 0 C0.99 0.33 1.98 0.66 3 1 C0.95312762 4.07030857 -1.09197539 5.78071806 -4 8 C-2.87548273 5.0280615 -1.77706209 2.66559313 0 0 Z " fill="#F5CF24" transform="translate(341,275)"/>
<path d="M0 0 C0.66 0.33 1.32 0.66 2 1 C1.25 7.625 1.25 7.625 -1 11 C-1.02688151 9.35425434 -1.04634123 7.70838587 -1.0625 6.0625 C-1.07410156 5.14597656 -1.08570313 4.22945312 -1.09765625 3.28515625 C-1 1 -1 1 0 0 Z " fill="#0E1B23" transform="translate(546,784)"/>
<path d="M0 0 C-1.32 0.33 -2.64 0.66 -4 1 C-4 1.66 -4 2.32 -4 3 C-4.99 3 -5.98 3 -7 3 C-7 2.34 -7 1.68 -7 1 C-7.66 0.67 -8.32 0.34 -9 0 C-3.375 -1.125 -3.375 -1.125 0 0 Z " fill="#E7B722" transform="translate(467,199)"/>
</svg>
